<svg width="55" height="54" viewBox="0 0 55 54" fill="none" xmlns="http://www.w3.org/2000/svg">
<g clip-path="url(#clip0_139_91)">
<rect x="0.398438" width="54" height="54" rx="10" fill="url(#paint0_linear_139_91)"/>
<path d="M21.2254 26.5713C22.6405 29.4641 24.9854 31.7984 27.8847 33.2003C28.0968 33.3008 28.3315 33.3443 28.5655 33.3266C28.7996 33.3089 29.025 33.2306 29.2196 33.0993L33.4886 30.2526C33.6774 30.1267 33.8947 30.0499 34.1206 30.0291C34.3466 30.0084 34.5742 30.0443 34.7828 30.1337L42.7693 33.5565C43.0406 33.6717 43.2671 33.872 43.4147 34.1272C43.5623 34.3824 43.6229 34.6786 43.5875 34.9712C43.3351 36.9465 42.3713 38.762 40.8767 40.0779C39.382 41.3938 37.459 42.1197 35.4676 42.1198C29.3172 42.1198 23.4187 39.6765 19.0696 35.3275C14.7206 30.9785 12.2773 25.08 12.2773 18.9295C12.2774 16.9382 13.0034 15.0151 14.3193 13.5205C15.6351 12.0259 17.4506 11.0621 19.4259 10.8097C19.7186 10.7742 20.0148 10.8349 20.2699 10.9825C20.5251 11.13 20.7254 11.3565 20.8407 11.6278L24.2664 19.6213C24.355 19.8281 24.3911 20.0535 24.3715 20.2776C24.3519 20.5017 24.2772 20.7175 24.154 20.9057L21.3172 25.2402C21.1881 25.4352 21.1118 25.6603 21.0957 25.8936C21.0796 26.1269 21.1243 26.3604 21.2254 26.5713Z" fill="white"/>
</g>
<defs>
<linearGradient id="paint0_linear_139_91" x1="75.9984" y1="-71.1346" x2="-76.9021" y2="-56.3313" gradientUnits="userSpaceOnUse">
<stop stop-color="#F6B67D"/>
<stop offset="0.440374" stop-color="#C14C74"/>
</linearGradient>
<clipPath id="clip0_139_91">
<rect x="0.398438" width="54" height="54" rx="10" fill="white"/>
</clipPath>
</defs>
</svg>
