<svg width="54" height="54" viewBox="0 0 54 54" fill="none" xmlns="http://www.w3.org/2000/svg">
<rect x="-0.00390625" width="54" height="54" rx="10" fill="url(#paint0_linear_139_87)"/>
<path d="M41.875 14H12.125C11.5614 14 11.0209 14.2371 10.6224 14.659C10.2239 15.081 10 15.6533 10 16.25V18.7028C10 19.506 10.4805 20.2312 11.22 20.5445L26.22 26.8974C26.7186 27.1086 27.2814 27.1086 27.78 26.8974L42.78 20.5445C43.5195 20.2312 44 19.506 44 18.7028V16.25C44 15.6533 43.7761 15.081 43.3776 14.659C42.9791 14.2371 42.4386 14 41.875 14ZM12.78 24.8794C11.4612 24.3209 10 25.2889 10 26.721V38.75C10 39.3467 10.2239 39.919 10.6224 40.341C11.0209 40.7629 11.5614 41 12.125 41H41.875C42.4386 41 42.9791 40.7629 43.3776 40.341C43.7761 39.919 44 39.3467 44 38.75V26.721C44 25.2889 42.5388 24.3209 41.22 24.8794L27.78 30.5717C27.2814 30.7828 26.7186 30.7828 26.22 30.5717L12.78 24.8794Z" fill="white"/>
<defs>
<linearGradient id="paint0_linear_139_87" x1="75.5961" y1="-71.1346" x2="-77.3045" y2="-56.3313" gradientUnits="userSpaceOnUse">
<stop stop-color="#F6B67D"/>
<stop offset="0.440374" stop-color="#C14C74"/>
</linearGradient>
</defs>
</svg>
