<svg width="56" height="56" viewBox="0 0 56 56" fill="none" xmlns="http://www.w3.org/2000/svg">
<rect x="1.5" y="1.5" width="53" height="53" rx="11.5" stroke="#555555" stroke-width="3"/>
<path fill-rule="evenodd" clip-rule="evenodd" d="M16.6667 15H39.3333C40.8407 15 42.28 15.6264 43.3453 16.7255C44.3993 17.8364 45 19.3373 45 20.9091V35.0909C45 36.6627 44.3993 38.1636 43.3453 39.2745C42.28 40.3736 40.8407 41 39.3333 41H16.6667C15.1593 41 13.72 40.3736 12.6547 39.2745C11.6007 38.1636 11 36.6627 11 35.0909V20.9091C11 19.3373 11.6007 17.8364 12.6547 16.7255C13.72 15.6264 15.1593 15 16.6667 15ZM16.6667 17.3636H39.3333C40.24 17.3636 41.1013 17.7418 41.736 18.4036C42.3707 19.0655 42.7333 19.9636 42.7333 20.9091V35.0909C42.7333 36.0364 42.3707 36.9345 41.736 37.5964C41.1013 38.2582 40.24 38.6364 39.3333 38.6364H16.6667C15.76 38.6364 14.8987 38.2582 14.264 37.5964C13.6293 36.9345 13.2667 36.0364 13.2667 35.0909V20.9091C13.2667 19.9636 13.6293 19.0655 14.264 18.4036C14.8987 17.7418 15.76 17.3636 16.6667 17.3636Z" fill="#555555"/>
<path d="M43.3587 19.1401C43.6308 18.9844 43.9368 18.9585 44.2315 19.0623C44.5149 19.179 44.7529 19.4126 44.8776 19.711C45.0136 20.0224 45.0363 20.3727 44.9456 20.71C44.8436 21.0343 44.6396 21.3068 44.3789 21.4495L30.539 29.3767C30.5277 29.3767 30.5163 29.3896 30.505 29.3896C29.7229 29.8048 28.8615 30.0124 28 29.9994C27.1386 30.0124 26.2771 29.8048 25.495 29.3896C25.4837 29.3896 25.4723 29.3767 25.461 29.3767L11.6211 21.4495C11.3604 21.3068 11.1564 21.0343 11.0544 20.71C10.9637 20.3727 10.9864 20.0224 11.1224 19.711C11.2471 19.4126 11.4851 19.179 11.7685 19.0623C12.0632 18.9585 12.3692 18.9844 12.6413 19.1401L26.4698 27.0413C26.9459 27.3008 27.4673 27.4176 28 27.4046C28.5327 27.4176 29.0541 27.3008 29.5302 27.0413L43.3587 19.1401Z" fill="#555555"/>
</svg>
