<svg width="56" height="56" viewBox="0 0 56 56" fill="none" xmlns="http://www.w3.org/2000/svg">
<g clip-path="url(#clip0_59_390)">
<path d="M22.2853 27.6032C23.5955 30.2818 25.7667 32.4432 28.4513 33.7412C28.6477 33.8342 28.8649 33.8746 29.0817 33.8582C29.2984 33.8418 29.5071 33.7692 29.6873 33.6476L33.6401 31.0118C33.8149 30.8953 34.016 30.8242 34.2253 30.8049C34.4345 30.7857 34.6452 30.819 34.8384 30.9018L42.2333 34.071C42.4845 34.1777 42.6942 34.3632 42.8309 34.5994C42.9675 34.8357 43.0237 35.11 42.9909 35.3809C42.7571 37.2099 41.8648 38.891 40.4808 40.1093C39.0969 41.3277 37.3163 41.9999 35.4725 42C29.7776 42 24.316 39.7377 20.2892 35.7108C16.2623 31.684 14 26.2224 14 20.5275C14.0001 18.6837 14.6723 16.9031 15.8907 15.5192C17.109 14.1352 18.7901 13.2429 20.6191 13.0091C20.89 12.9763 21.1643 13.0325 21.4005 13.1691C21.6368 13.3058 21.8223 13.5155 21.929 13.7667L25.101 21.1681C25.183 21.3595 25.2165 21.5683 25.1983 21.7757C25.1802 21.9832 25.111 22.183 24.9969 22.3573L22.3702 26.3707C22.2507 26.5513 22.18 26.7597 22.1651 26.9757C22.1502 27.1918 22.1916 27.408 22.2853 27.6032Z" stroke="#555555" stroke-width="1.97" stroke-linecap="round" stroke-linejoin="round"/>
</g>
<rect x="1.5" y="1.5" width="53" height="53" rx="11.5" stroke="#555555" stroke-width="3"/>
<defs>
<clipPath id="clip0_59_390">
<rect x="3" y="3" width="50" height="50" rx="10" fill="white"/>
</clipPath>
</defs>
</svg>
