<svg width="220" height="220" viewBox="0 0 220 220" fill="none" xmlns="http://www.w3.org/2000/svg">
<path fill-rule="evenodd" clip-rule="evenodd" d="M110 220C170.751 220 220 170.751 220 110C220 49.2487 170.751 0 110 0C49.2487 0 0 49.2487 0 110C0 170.751 49.2487 220 110 220ZM110 178.514C147.839 178.514 178.514 147.839 178.514 110C178.514 72.1606 147.839 41.4857 110 41.4857C72.1604 41.4857 41.4855 72.1606 41.4855 110C41.4855 147.839 72.1604 178.514 110 178.514Z" fill="#121212"/>
<path fill-rule="evenodd" clip-rule="evenodd" d="M110.628 219.998C110.419 220 110.209 220 110 220C102.466 220 95.1084 219.243 88 217.8V174.906L88.0001 174.906V45.094L88 45.0941V2.20038C95.1084 0.757459 102.466 0 110 0C117.534 0 124.892 0.757472 132 2.20042V2.20057C182.209 12.3927 220 56.7832 220 110C220 163.217 182.209 207.607 132 217.8C125.089 219.202 117.943 219.957 110.628 219.998ZM132 174.906C159.047 165.741 178.514 140.144 178.514 110C178.514 79.8565 159.047 54.2596 132 45.0945V174.906Z" fill="#121212"/>
</svg>
