<svg width="108" height="108" viewBox="0 0 108 108" fill="none" xmlns="http://www.w3.org/2000/svg">
<path fill-rule="evenodd" clip-rule="evenodd" d="M54 108C83.8234 108 108 83.8234 108 54C108 24.1766 83.8234 0 54 0C24.1766 0 0 24.1766 0 54C0 83.8234 24.1766 108 54 108ZM53.9948 87.6341C72.5705 87.6341 87.6291 72.5755 87.6291 53.9998C87.6291 35.4241 72.5705 20.3655 53.9948 20.3655C35.4191 20.3655 20.3605 35.4241 20.3605 53.9998C20.3605 72.5755 35.4191 87.6341 53.9948 87.6341Z" fill="#FFFCFC"/>
<path fill-rule="evenodd" clip-rule="evenodd" d="M64.792 106.92C61.3023 107.628 57.6904 108 53.9916 108C50.2931 108 46.6814 107.628 43.192 106.92V99.3603H43.1914V7.40604H43.192V1.08013C46.6814 0.371823 50.2931 0 53.9916 0C54.0947 0 54.1978 0.000289034 54.3008 0.000866335V0.000764836C57.4299 0.0183382 60.4961 0.302069 63.4777 0.830459C63.9176 0.908423 64.3558 0.991714 64.792 1.08026C89.4397 6.08393 107.991 27.8755 107.991 53.9999C107.991 80.1243 89.4397 101.916 64.792 106.92V106.92ZM64.7914 85.8606C78.0665 81.3599 87.6201 68.7955 87.6201 53.9997C87.6201 39.2039 78.0665 26.6395 64.7914 22.1387V85.8606Z" fill="#FFFCFC"/>
</svg>
