<svg width="132" height="220" viewBox="0 0 132 220" fill="none" xmlns="http://www.w3.org/2000/svg">
<path fill-rule="evenodd" clip-rule="evenodd" d="M22.6281 219.998C22.4188 220 22.2094 220 21.9999 220C14.4657 220 7.10839 219.243 0 217.8V174.906L0.000109676 174.906V45.094L0 45.0941V2.20038C7.10839 0.757459 14.4657 0 21.9999 0C29.5342 0 36.8916 0.757472 44 2.20042V2.20057C94.2091 12.3927 132 56.7832 132 110C132 163.217 94.2091 207.607 44 217.8C37.0892 219.202 29.9432 219.957 22.6281 219.998ZM44.0001 174.906C71.0474 165.741 90.5136 140.144 90.5136 110C90.5136 79.8565 71.0474 54.2596 44.0001 45.0945V174.906Z" fill="#121212"/>
</svg>
